<?xml version="1.0" encoding="iso-8859-1"?>
<!-- Generator: Adobe Illustrator 19.0.0, SVG Export Plug-In . SVG Version: 6.00 Build 0)  -->
<svg version="1.1" id="Layer_1" xmlns="http://www.w3.org/2000/svg" xmlns:xlink="http://www.w3.org/1999/xlink" x="0px" y="0px"
	 viewBox="0 0 330 330" style="enable-background:new 0 0 330 330;" xml:space="preserve">
<g id="XMLID_25_">
	<path id="XMLID_26_" d="M203.527,225.001l9.453-14.182c4.596-6.893,2.732-16.206-4.16-20.801
		c-6.893-4.596-16.206-2.733-20.801,4.161l-15,22.502c-3.359,5.039-3.359,11.603,0,16.641l15,22.498
		c2.891,4.336,7.647,6.681,12.494,6.681c2.859,0,5.75-0.816,8.307-2.521c6.894-4.596,8.756-13.909,4.16-20.801L203.527,225.001z"/>
	<path id="XMLID_27_" d="M263.527,225.001l9.453-14.182c4.596-6.893,2.732-16.206-4.16-20.801
		c-6.893-4.596-16.205-2.733-20.801,4.161l-15,22.502c-3.359,5.039-3.359,11.603,0,16.641l15,22.498
		c2.891,4.336,7.647,6.681,12.494,6.681c2.859,0,5.75-0.816,8.307-2.521c6.894-4.596,8.756-13.909,4.16-20.801L263.527,225.001z"/>
	<polygon id="XMLID_28_" points="250,0 20,0 60,30 135,86.25 	"/>
	<path id="XMLID_29_" d="M270,130.145V22.5L240,45l-96,72c-2.666,2-5.834,3-9,3s-6.334-1-9-3L0,22.5V195c0,8.284,6.716,15,15,15
		h106.076c-0.704,4.901-1.076,9.907-1.076,15c0,57.897,47.103,105,105,105s105-47.103,105-105
		C330,183.198,305.443,147.027,270,130.145z M225,300c-41.356,0-75-33.645-75-75s33.644-75,75-75c41.355,0,75,33.645,75,75
		S266.355,300,225,300z"/>
</g>
<g>
</g>
<g>
</g>
<g>
</g>
<g>
</g>
<g>
</g>
<g>
</g>
<g>
</g>
<g>
</g>
<g>
</g>
<g>
</g>
<g>
</g>
<g>
</g>
<g>
</g>
<g>
</g>
<g>
</g>
</svg>
